<svg width="0" height="0" class="hidden">
  <symbol fill="none" xmlns="http://www.w3.org/2000/svg" viewBox="0 0 64 64" id="procreate">
    <g opacity="0.78">
      <path d="M4 24.2667C4 17.1727 4 13.6257 5.38058 10.9161C6.59498 8.53273 8.53273 6.59498 10.9161 5.38058C13.6257 4 17.1727 4 24.2667 4H39.7333C46.8273 4 50.3743 4 53.0839 5.38058C55.4673 6.59498 57.405 8.53273 58.6194 10.9161C60 13.6257 60 17.1727 60 24.2667V39.7333C60 46.8273 60 50.3743 58.6194 53.0839C57.405 55.4673 55.4673 57.405 53.0839 58.6194C50.3743 60 46.8273 60 39.7333 60H24.2667C17.1727 60 13.6257 60 10.9161 58.6194C8.53273 57.405 6.59498 55.4673 5.38058 53.0839C4 50.3743 4 46.8273 4 39.7333V24.2667Z" fill="#1E252B"></path>
      <path d="M19.7334 32.8C11.9334 38.5408 10.4 46.9334 10.4 53.9334C10.7556 51.8445 12.3867 46.9467 16.0667 44.0667C21.5334 39.7884 31.5333 41.1978 42.4667 33.9334C53.4001 26.6689 54.4667 17.2 53.0667 9.93335C52.094 16.9451 48.7744 20.001 44.2 22.7334C34.2668 28.6667 28.0668 26.6667 19.7334 32.8Z" fill="url(#paint0_linear_1_171)"></path>
      <path d="M19.7334 32.8C11.9334 38.5408 10.4 46.9334 10.4 53.9334C10.7556 51.8445 12.3867 46.9467 16.0667 44.0667C21.5334 39.7884 31.5333 41.1978 42.4667 33.9334C53.4001 26.6689 54.4667 17.2 53.0667 9.93335C52.094 16.9451 48.7744 20.001 44.2 22.7334C34.2668 28.6667 28.0668 26.6667 19.7334 32.8Z" fill="url(#paint1_linear_1_171)"></path>
      <path d="M10.4933 51.0639C10.9213 44.739 12.975 37.774 19.7333 32.8C24.0777 29.6025 27.8422 28.6155 31.8582 27.5626C34.2018 26.9482 36.6311 26.3113 39.3112 25.1995C38.3334 26.1333 33.6871 28.3133 30.1825 29.7699C26.6871 31.2227 23.0018 32.7543 19.9334 34.8C13.777 38.9042 11.2737 46.045 10.4933 51.0639Z" fill="url(#paint2_linear_1_171)"></path>
      <path d="M10.4933 51.0639C10.9213 44.739 12.975 37.774 19.7333 32.8C24.0777 29.6025 27.8422 28.6155 31.8582 27.5626C34.2018 26.9482 36.6311 26.3113 39.3112 25.1995C38.3334 26.1333 33.6871 28.3133 30.1825 29.7699C26.6871 31.2227 23.0018 32.7543 19.9334 34.8C13.777 38.9042 11.2737 46.045 10.4933 51.0639Z" fill="url(#paint3_linear_1_171)"></path>
      <path d="M48.4355 28.7418C47.6689 29.4927 46.8141 30.1649 45.8668 30.7333C41.6001 33.2934 37.065 34.1189 32.6522 34.9223C29.1357 35.5624 25.6969 36.1884 22.5334 37.6667C15.4006 40.9998 11.0007 47.9324 10.4002 53.9322C10.4002 53.9324 10.4001 53.9327 10.4001 53.9329C10.4001 53.9318 10.4 53.9308 10.4 53.9297C10.4001 53.4717 10.4067 53.0078 10.4212 52.539C10.4575 51.7953 10.5344 50.9713 10.6616 50.0926C11.6033 45.1584 14.1644 38.646 19.9334 34.8C22.3756 33.1719 25.2084 31.8693 28.0254 30.673C30.5027 29.8597 32.7354 29.3535 34.8626 28.8712C38.2111 28.1121 41.2983 27.4122 44.6668 25.6667C51.7349 22.0041 53.5868 14.4776 53.089 10.0503C54.1458 15.6601 53.7186 22.5598 48.4355 28.7418Z" fill="url(#paint4_linear_1_171)"></path>
      <path d="M48.4353 28.7419C47.6687 29.4928 46.814 30.165 45.8668 30.7334C41.6001 33.2934 37.065 34.119 32.6521 34.9223C29.1357 35.5624 25.6969 36.1884 22.5334 37.6667C18.4313 39.5836 15.2331 42.691 13.1416 46.1268C14.987 43.5337 17.7983 40.637 21.2667 39.5334C24.6512 38.4565 27.8795 38.3452 31.2334 38.2296C32.1946 38.1965 33.1662 38.163 34.1547 38.1063C36.8189 37.1365 39.6109 35.8308 42.4666 33.9334C44.9282 32.2979 46.8896 30.5506 48.4353 28.7419Z" fill="url(#paint5_linear_1_171)"></path>
      <path d="M48.4353 28.7419C47.6687 29.4928 46.814 30.165 45.8668 30.7334C41.6001 33.2934 37.065 34.119 32.6521 34.9223C29.1357 35.5624 25.6969 36.1884 22.5334 37.6667C18.4313 39.5836 15.2331 42.691 13.1416 46.1268C14.987 43.5337 17.7983 40.637 21.2667 39.5334C24.6512 38.4565 27.8795 38.3452 31.2334 38.2296C32.1946 38.1965 33.1662 38.163 34.1547 38.1063C36.8189 37.1365 39.6109 35.8308 42.4666 33.9334C44.9282 32.2979 46.8896 30.5506 48.4353 28.7419Z" fill="url(#paint6_linear_1_171)"></path>
      <path d="M53.0889 10.0503C53.0816 10.0112 53.0741 9.97227 53.0666 9.93335C52.0939 16.9451 48.7744 20.001 44.2 22.7334C42.4671 23.7684 40.8479 24.5621 39.3111 25.1996C38.3331 26.1335 33.687 28.3134 30.1825 29.7699L30.1819 29.7701C29.4687 30.0666 28.7476 30.3663 28.0254 30.673C30.5027 29.8597 32.7353 29.3535 34.8625 28.8712C38.2111 28.1121 41.2982 27.4122 44.6667 25.6667C51.7349 22.0041 53.5867 14.4776 53.0889 10.0503Z" fill="url(#paint7_linear_1_171)"></path>
      <path d="M53.0889 10.0503C53.0816 10.0112 53.0741 9.97227 53.0666 9.93335C52.0939 16.9451 48.7744 20.001 44.2 22.7334C42.4671 23.7684 40.8479 24.5621 39.3111 25.1996C38.3331 26.1335 33.687 28.3134 30.1825 29.7699L30.1819 29.7701C29.4687 30.0666 28.7476 30.3663 28.0254 30.673C30.5027 29.8597 32.7353 29.3535 34.8625 28.8712C38.2111 28.1121 41.2982 27.4122 44.6667 25.6667C51.7349 22.0041 53.5867 14.4776 53.0889 10.0503Z" fill="url(#paint8_linear_1_171)"></path>
    </g>
    <defs>
      <linearGradient id="paint0_linear_1_171" x1="34.8" y1="36.4" x2="11.7334" y2="52.9333" gradientUnits="userSpaceOnUse">
        <stop stop-color="#FE5004"></stop>
        <stop offset="0.602538" stop-color="#FFB915"></stop>
        <stop offset="1" stop-color="#FFFC41"></stop>
      </linearGradient>
      <linearGradient id="paint1_linear_1_171" x1="25.6667" y1="37.8" x2="25.8" y2="40.2" gradientUnits="userSpaceOnUse">
        <stop stop-color="#FD3E00"></stop>
        <stop offset="1" stop-color="#FD4400" stop-opacity="0"></stop>
      </linearGradient>
      <linearGradient id="paint2_linear_1_171" x1="39.3333" y1="24" x2="6.79999" y2="52.9333" gradientUnits="userSpaceOnUse">
        <stop stop-color="#005FC6"></stop>
        <stop offset="0.279756" stop-color="#23A4DF"></stop>
        <stop offset="0.465158" stop-color="#3AC2B7"></stop>
        <stop offset="0.640642" stop-color="#60EC7A"></stop>
        <stop offset="0.818668" stop-color="#CFFDBD"></stop>
        <stop offset="1" stop-color="#D0FCB6"></stop>
      </linearGradient>
      <linearGradient id="paint3_linear_1_171" x1="32.7333" y1="29.5333" x2="29.9333" y2="27" gradientUnits="userSpaceOnUse">
        <stop stop-color="#0061CB"></stop>
        <stop offset="1" stop-color="#067EEA" stop-opacity="0"></stop>
      </linearGradient>
      <linearGradient id="paint4_linear_1_171" x1="53.2" y1="10" x2="10.4" y2="53.8667" gradientUnits="userSpaceOnUse">
        <stop stop-color="#8E55F1"></stop>
        <stop offset="0.140795" stop-color="#8B48DF"></stop>
        <stop offset="0.274905" stop-color="#E04DD9"></stop>
        <stop offset="0.492309" stop-color="#F496C8"></stop>
        <stop offset="0.633104" stop-color="#FAD2BA"></stop>
        <stop offset="0.856964" stop-color="#FEF7E5"></stop>
        <stop offset="1" stop-color="#FFF5BF"></stop>
      </linearGradient>
      <linearGradient id="paint5_linear_1_171" x1="49" y1="28.3334" x2="14.0666" y2="44.1334" gradientUnits="userSpaceOnUse">
        <stop stop-color="#F41A73"></stop>
        <stop offset="0.399909" stop-color="#FC50A3"></stop>
        <stop offset="0.584511" stop-color="#FE9485"></stop>
        <stop offset="0.703104" stop-color="#FFAF88"></stop>
        <stop offset="1" stop-color="#FFC385"></stop>
      </linearGradient>
      <linearGradient id="paint6_linear_1_171" x1="36.4" y1="33.2" x2="36.4666" y2="36.4" gradientUnits="userSpaceOnUse">
        <stop stop-color="#9B0008"></stop>
        <stop offset="1" stop-color="#EA115A" stop-opacity="0"></stop>
      </linearGradient>
      <linearGradient id="paint7_linear_1_171" x1="53.2" y1="13.6" x2="21.6666" y2="34.2" gradientUnits="userSpaceOnUse">
        <stop stop-color="#231283"></stop>
        <stop offset="0.362865" stop-color="#7053C6"></stop>
        <stop offset="0.466353" stop-color="#7272DB"></stop>
        <stop offset="0.634311" stop-color="#399EE9"></stop>
        <stop offset="1" stop-color="#00CFFF"></stop>
      </linearGradient>
      <linearGradient id="paint8_linear_1_171" x1="45.3333" y1="24" x2="46.7333" y2="25.8" gradientUnits="userSpaceOnUse">
        <stop stop-color="#3F259D" stop-opacity="0"></stop>
        <stop offset="1" stop-color="#412DAA"></stop>
      </linearGradient>
    </defs>
  </symbol>
  <symbol fill="none" xmlns="http://www.w3.org/2000/svg" viewBox="0 0 64 64" id="toolbox">
    <g opacity="0.78" clip-path="url(#clip0_1_107)">
      <path d="M32 64.152L60 48.13V16.114L32 32.134V64.152Z" fill="#000001"></path>
      <path d="M38 49.1112V54L50 46.8888V42L38 49.1112Z" fill="white"></path>
      <path d="M32 0.151978L4 16.114V48.13L32 64.152V32.134L60 16.114L32 0.151978Z" fill="url(#paint0_linear_1_107)"></path>
    </g>
    <defs>
      <linearGradient id="paint0_linear_1_107" x1="4.36" y1="46.51" x2="60.082" y2="17.564" gradientUnits="userSpaceOnUse">
        <stop offset="0.043" stop-color="#FF8618"></stop>
        <stop offset="0.382" stop-color="#FF246E"></stop>
        <stop offset="0.989" stop-color="#AF1DF5"></stop>
      </linearGradient>
      <clipPath id="clip0_1_107">
        <rect width="64" height="64" fill="white"></rect>
      </clipPath>
    </defs>
  </symbol>
  <symbol fill="none" xmlns="http://www.w3.org/2000/svg" viewBox="0 0 64 64" id="phpstorm">
    <g clip-path="url(#clip0_1_138)">
      <path d="M36.2057 13.8971L33.1886 4.75429L10.88 0L0 12.3429L34.0114 29.7143L36.2057 13.8971Z" fill="url(#paint0_linear_1_138)"></path>
      <path d="M25.6 37.8514L24.96 18.8343L0 12.3429L6.12571 49.0057L25.6 48.8229V37.8514Z" fill="url(#paint1_linear_1_138)"></path>
      <path d="M20.2057 37.4858L21.3943 22.4L39.4971 3.84005L55.68 6.76576L64 27.52L55.3143 36.1143L41.1429 33.8286L32.3657 43.0629L20.2057 37.4858Z" fill="url(#paint2_linear_1_138)"></path>
      <path d="M39.4972 3.84005L13.5315 26.88L18.56 56.5029L40.1372 64L64 49.7372L39.4972 3.84005Z" fill="url(#paint3_linear_1_138)"></path>
      <path d="M12.2514 12.2514H51.7485V51.7486H12.2514V12.2514Z" fill="black"></path>
      <path d="M16 44.3429H30.8114V46.8114H16V44.3429Z" fill="white"></path>
      <path d="M15.817 17.3714H22.4913C26.4228 17.3714 28.7999 19.6571 28.7999 23.04V23.1314C28.7999 26.9714 25.8742 28.8914 22.1256 28.8914H19.3828V33.8286H15.817V17.3714ZM22.3085 25.6C24.137 25.6 25.1428 24.5029 25.1428 23.1314V23.04C25.1428 21.3943 24.0456 20.5714 22.217 20.5714H19.4742V25.6H22.3085Z" fill="white"></path>
      <path d="M29.7143 31.4514L31.8171 28.8914C33.28 30.0799 34.8343 30.9028 36.7543 30.9028C38.2171 30.9028 39.1314 30.3542 39.1314 29.3485V29.2571C39.1314 28.3428 38.5828 27.8856 35.84 27.1542C32.5486 26.3314 30.3543 25.4171 30.3543 22.1256V22.0342C30.3543 19.0171 32.7314 17.0971 36.1143 17.0971C38.4914 17.0971 40.5943 17.8285 42.24 19.1999L40.32 21.9428C38.8571 20.9371 37.3943 20.2971 36.0228 20.2971C34.6514 20.2971 33.92 20.9371 33.92 21.7599V21.8514C33.92 22.9485 34.6514 23.3142 37.4857 24.0456C40.7771 24.9599 42.6971 26.1485 42.6971 28.9828V29.0742C42.6971 32.3656 40.2285 34.1942 36.6628 34.1942C34.1943 34.1028 31.7257 33.1885 29.7143 31.4514Z" fill="white"></path>
    </g>
    <defs>
      <linearGradient id="paint0_linear_1_138" x1="0.510171" y1="42.8306" x2="27.3801" y2="7.33806" gradientUnits="userSpaceOnUse">
        <stop offset="0.016" stop-color="#765AF8"></stop>
        <stop offset="0.382" stop-color="#B345F1"></stop>
        <stop offset="0.758" stop-color="#FA3293"></stop>
        <stop offset="0.941" stop-color="#FF318C"></stop>
      </linearGradient>
      <linearGradient id="paint1_linear_1_138" x1="2.496" y1="44.2322" x2="29.323" y2="8.79634" gradientUnits="userSpaceOnUse">
        <stop offset="0.016" stop-color="#765AF8"></stop>
        <stop offset="0.382" stop-color="#B345F1"></stop>
        <stop offset="0.758" stop-color="#FA3293"></stop>
        <stop offset="0.941" stop-color="#FF318C"></stop>
      </linearGradient>
      <linearGradient id="paint2_linear_1_138" x1="46.4978" y1="42.4275" x2="31.3362" y2="6.44394" gradientUnits="userSpaceOnUse">
        <stop offset="0.183" stop-color="#765AF8"></stop>
        <stop offset="0.238" stop-color="#8655F6"></stop>
        <stop offset="0.345" stop-color="#9F4CF3"></stop>
        <stop offset="0.443" stop-color="#AE47F2"></stop>
        <stop offset="0.522" stop-color="#B345F1"></stop>
      </linearGradient>
      <linearGradient id="paint3_linear_1_138" x1="57.8432" y1="52.4243" x2="22.5811" y2="25.1575" gradientUnits="userSpaceOnUse">
        <stop offset="0.016" stop-color="#765AF8"></stop>
        <stop offset="0.382" stop-color="#B345F1"></stop>
      </linearGradient>
      <clipPath id="clip0_1_138">
        <rect width="64" height="64" fill="white"></rect>
      </clipPath>
    </defs>
  </symbol>
  <symbol fill="none" xmlns="http://www.w3.org/2000/svg" viewBox="0 0 64 64" id="zeplin">
    <g opacity="0.78">
      <path fill-rule="evenodd" clip-rule="evenodd" d="M12.6315 40.3366L9.70191 41.3886L9.54462 49.9552L19.6858 46.3136C16.2075 45.1652 13.6674 43.1445 12.6315 40.3366Z" fill="#FDBD39"></path>
      <path fill-rule="evenodd" clip-rule="evenodd" d="M14.1646 31.2759L4 34.9259L9.70192 41.3885L12.6315 40.3366C11.5986 37.5368 12.2356 34.372 14.1646 31.2759Z" fill="#F69833"></path>
      <path fill-rule="evenodd" clip-rule="evenodd" d="M31.2698 18.9149C18.3262 23.5627 9.98147 33.1535 12.6315 40.3366L59.5046 23.5053C56.8546 16.3222 44.2135 14.267 31.2698 18.9149Z" fill="#FECF33"></path>
      <path fill-rule="evenodd" clip-rule="evenodd" d="M40.8663 44.927C53.81 40.2791 62.1703 30.7308 59.5046 23.5052L12.6315 40.3365C15.2971 47.5622 27.9226 49.5748 40.8663 44.927Z" fill="#EE6723"></path>
      <path fill-rule="evenodd" clip-rule="evenodd" d="M59.5046 23.5052L12.6315 40.3365C13.5493 42.8244 17.0494 44.0501 21.9605 44.0501C26.7483 44.0501 32.8772 42.886 39.2669 40.5916C52.2106 35.9437 61.3173 28.4186 59.5046 23.5052Z" fill="#F69833"></path>
      <path fill-rule="evenodd" clip-rule="evenodd" d="M50.1756 19.7916C45.3877 19.7916 39.2589 20.9557 32.8692 23.2501C19.9255 27.898 10.8188 35.4231 12.6315 40.3365L59.5046 23.5052C58.5868 21.0173 55.0867 19.7916 50.1756 19.7916Z" fill="#FDBD39"></path>
      <path fill-rule="evenodd" clip-rule="evenodd" d="M47.587 50.4088H47.5867C46.2076 50.4088 44.173 49.1843 41.5394 46.7694C38.4237 43.9124 34.8547 39.7278 31.4896 34.9866C28.1247 30.2455 25.3596 25.5055 23.7039 21.6397C21.9 17.427 21.6428 14.8367 22.9394 13.9408C23.2237 13.7446 23.5665 13.6452 23.958 13.6452C25.0127 13.6452 27.0679 14.4171 30.8682 18.0945L30.9513 18.1749L30.94 18.2892C30.914 18.5534 30.8901 18.8199 30.8688 19.0816L30.8264 19.6011L30.4536 19.2318C26.3589 15.177 24.5564 14.7392 23.9714 14.7392C23.8046 14.7392 23.6718 14.7726 23.5765 14.8384C23.0141 15.2268 22.9779 17.1294 24.7268 21.2132C26.353 25.0101 29.0778 29.6784 32.3993 34.3581C35.7209 39.0382 39.2353 43.161 42.2954 45.9669C45.5951 48.9925 47.0821 49.3192 47.5682 49.3192C47.7361 49.3192 47.8725 49.2838 47.9737 49.2138C48.567 48.8041 48.5677 46.7659 46.6173 42.3704L46.5278 42.1686L46.7238 42.0631C46.9198 41.9576 47.1094 41.8537 47.2872 41.7544L47.522 41.6232L47.6302 41.867C49.0132 44.9816 50.3059 48.9401 48.6108 50.1114C48.325 50.3087 47.9806 50.4088 47.587 50.4088ZM47.5867 49.9283H47.587L47.5868 50.1685L47.5867 49.9283Z" fill="#EE6723"></path>
      <path fill-rule="evenodd" clip-rule="evenodd" d="M41.1805 44.7959L41.1608 45.0353C40.8336 49.0154 39.9719 53.8003 37.7254 53.994C37.6802 53.998 37.6333 54 37.5865 54C36.0603 54 34.6165 51.8507 33.2951 47.6117C32.0449 43.6013 31.0748 38.2167 30.5634 32.4499C30.052 26.6843 30.0596 21.2154 30.585 17.0507C31.1575 12.5125 32.2476 10.1424 33.8248 10.0064C33.8714 10.0022 33.9197 10 33.9674 10C35.0745 10 36.7431 11.2322 38.4512 16.9717L37.3359 17.1833C36.7656 15.2653 36.144 13.7054 35.527 12.6335C34.9562 11.642 34.4013 11.096 33.9643 11.096C33.9499 11.096 33.9354 11.0966 33.9212 11.0978C33.2376 11.1568 32.242 12.7867 31.687 17.186C31.171 21.276 31.1648 26.663 31.6695 32.3546C32.1744 38.047 33.1287 43.3511 34.3565 47.2896C34.9064 49.0536 35.5095 50.5073 36.1007 51.4938C36.6458 52.4035 37.1734 52.9045 37.5861 52.9045C37.6003 52.9045 37.6145 52.9038 37.6286 52.9026C38.2827 52.8463 39.5153 51.1502 40.0341 45.1827L41.1805 44.7959Z" fill="#EE6723"></path>
    </g>
  </symbol>
  <symbol fill="none" xmlns="http://www.w3.org/2000/svg" viewBox="0 0 65 64" id="invision">
    <g opacity="0.78" clip-path="url(#clip0_1_239)">
      <path d="M0 4C0 1.79086 1.79086 0 4 0H61C63.2091 0 65 1.79086 65 4V59.8234C65 62.0325 63.2091 63.8234 61 63.8234H4C1.79086 63.8234 0 62.0325 0 59.8234V4Z" fill="#FF0066"></path>
      <path d="M22.1178 20.5381C24.1737 20.5087 25.819 18.8536 25.7992 16.8346C25.7792 14.8155 24.1016 13.192 22.0452 13.2017C19.9888 13.2114 18.3273 14.8506 18.327 16.8698C18.3287 17.3556 18.4283 17.8363 18.6201 18.2842C18.8119 18.732 19.092 19.1382 19.4444 19.4792C19.7968 19.8202 20.2145 20.0894 20.6733 20.2712C21.1321 20.453 21.6231 20.5438 22.1178 20.5384V20.5381Z" fill="white"></path>
      <path d="M14.258 40.178C14.0429 41.0813 13.9305 42.0053 13.9229 42.9329C13.9229 46.1622 15.7063 48.3065 19.4971 48.3065C22.6405 48.3065 25.191 46.4736 27.0242 43.5123L25.9034 47.9288H32.1434L35.7134 33.8877C36.6051 30.3288 38.3314 28.4832 40.9522 28.4832C43.0139 28.4832 44.2959 29.7417 44.2959 31.8224C44.3061 32.4893 44.2121 33.154 44.0176 33.7932L42.1793 40.2496C41.9164 41.1387 41.7852 42.0604 41.7896 42.9863C41.7896 46.0498 43.6279 48.2966 47.473 48.2966C50.7621 48.2966 53.383 46.2183 54.8312 41.2376L52.3793 40.3057C51.1521 43.6449 50.0941 44.2473 49.2593 44.2473C48.4247 44.2473 47.9748 43.7013 47.9748 42.6058C47.9989 42.0311 48.0923 41.4612 48.253 40.908L50.0393 34.6154C50.4403 33.3216 50.6471 31.9773 50.653 30.625C50.653 25.9173 47.7539 23.4615 44.2413 23.4615C40.9522 23.4615 37.6088 26.3742 35.9368 29.4405L37.1614 23.9362H27.6323L26.2934 28.7868H30.7551L28.0096 39.5705C25.8514 44.2782 21.8892 44.3547 21.3925 44.245C20.576 44.0635 20.056 43.7599 20.056 42.713C20.0799 41.8656 20.2109 41.0244 20.446 40.2087L24.6268 23.9235H14.0397L12.7034 28.7741H17.1051L14.258 40.178Z" fill="white"></path>
    </g>
    <defs>
      <clipPath id="clip0_1_239">
        <rect width="65" height="63.8234" fill="white"></rect>
      </clipPath>
    </defs>
  </symbol>
  <symbol fill="none" xmlns="http://www.w3.org/2000/svg" viewBox="0 0 65 64" id="slack">
    <g opacity="0.78" clip-path="url(#clip0_1_267)">
      <path fill-rule="evenodd" clip-rule="evenodd" d="M13.6717 40.2192C13.6724 41.0975 13.4967 41.9674 13.1546 42.779C12.8125 43.5906 12.3108 44.328 11.6781 44.949C11.0454 45.57 10.2942 46.0624 9.46751 46.3979C8.6408 46.7335 7.75481 46.9057 6.86024 46.9046C5.96613 46.905 5.08072 46.7323 4.25464 46.3964C3.42855 46.0605 2.678 45.568 2.04589 44.9471C1.41379 44.3262 0.912528 43.5891 0.570777 42.7778C0.229027 41.9665 0.0534894 41.0971 0.0542014 40.2192C0.053489 39.341 0.229116 38.4714 0.571036 37.6599C0.912955 36.8485 1.41446 36.1112 2.04685 35.4903C2.67924 34.8693 3.43012 34.3769 4.25651 34.0412C5.08291 33.7054 5.96861 33.533 6.86295 33.5337H13.6744V40.2192H13.6717ZM17.0761 40.2192C17.0754 39.341 17.251 38.4714 17.5929 37.6599C17.9348 36.8485 18.4363 36.1112 19.0687 35.4903C19.7011 34.8693 20.452 34.3769 21.2784 34.0412C22.1048 33.7054 22.9905 33.533 23.8848 33.5337C24.7792 33.533 25.6649 33.7054 26.4913 34.0412C27.3177 34.3769 28.0685 34.8693 28.7009 35.4903C29.3333 36.1112 29.8348 36.8485 30.1767 37.6599C30.5187 38.4714 30.6943 39.341 30.6936 40.2192V56.9355C30.6943 57.8136 30.5187 58.6833 30.1767 59.4947C29.8348 60.3062 29.3333 61.0435 28.7009 61.6644C28.0685 62.2853 27.3177 62.7778 26.4913 63.1135C25.6649 63.4492 24.7792 63.6217 23.8848 63.621C22.9905 63.6217 22.1048 63.4492 21.2784 63.1135C20.452 62.7778 19.7011 62.2853 19.0687 61.6644C18.4363 61.0435 17.9348 60.3062 17.5929 59.4947C17.251 58.6833 17.0754 57.8136 17.0761 56.9355V40.2192Z" fill="#E01E5A"></path>
      <path fill-rule="evenodd" clip-rule="evenodd" d="M23.8848 13.3736C22.9902 13.3743 22.1043 13.2018 21.2777 12.8659C20.4512 12.53 19.7002 12.0373 19.0677 11.4161C18.4353 10.7949 17.9339 10.0573 17.5921 9.24554C17.2503 8.43379 17.075 7.56384 17.076 6.68547C17.0753 5.80733 17.251 4.93766 17.5929 4.12623C17.9348 3.31479 18.4363 2.57751 19.0687 1.95657C19.7011 1.33563 20.452 0.843207 21.2784 0.507479C22.1048 0.17175 22.9905 -0.00069732 23.8848 2.11916e-06C24.7791 -0.00069732 25.6648 0.17175 26.4912 0.507479C27.3176 0.843207 28.0685 1.33563 28.7009 1.95657C29.3333 2.57751 29.8348 3.31479 30.1767 4.12623C30.5186 4.93766 30.6943 5.80733 30.6935 6.68547V13.3763H23.8875L23.8848 13.3736ZM23.8848 16.7669C24.7791 16.7662 25.6648 16.9386 26.4912 17.2743C27.3176 17.6101 28.0685 18.1025 28.7009 18.7234C29.3333 19.3444 29.8348 20.0817 30.1767 20.8931C30.5186 21.7045 30.6943 22.5742 30.6935 23.4523C30.6943 24.3305 30.5186 25.2001 30.1767 26.0116C29.8348 26.823 29.3333 27.5603 28.7009 28.1812C28.0685 28.8022 27.3176 29.2946 26.4912 29.6303C25.6648 29.9661 24.7791 30.1385 23.8848 30.1378H6.80875C5.91464 30.1385 5.02916 29.9662 4.20294 29.6306C3.37672 29.295 2.62597 28.8028 1.99361 28.1822C1.36125 27.5615 0.859694 26.8246 0.517615 26.0134C0.175536 25.2023 -0.000354061 24.3329 2.15823e-06 23.455C-0.000710178 22.5769 0.174917 21.7072 0.516837 20.8958C0.858756 20.0843 1.36026 19.347 1.99265 18.7261C2.62504 18.1052 3.37592 17.6127 4.20231 17.277C5.02871 16.9413 5.91441 16.7688 6.80875 16.7695H23.8875L23.8848 16.7669Z" fill="#36C5F0"></path>
      <path fill-rule="evenodd" clip-rule="evenodd" d="M51.1738 23.4523C51.1731 22.574 51.3488 21.7041 51.6909 20.8925C52.0329 20.0809 52.5347 19.3435 53.1674 18.7225C53.8 18.1015 54.5512 17.6092 55.378 17.2736C56.2047 16.938 57.0907 16.7658 57.9852 16.7669C58.8796 16.7662 59.7653 16.9386 60.5917 17.2743C61.4181 17.6101 62.1689 18.1025 62.8013 18.7234C63.4337 19.3444 63.9352 20.0817 64.2771 20.8931C64.6191 21.7045 64.7947 22.5742 64.794 23.4523C64.7947 24.3305 64.6191 25.2002 64.2771 26.0116C63.9352 26.823 63.4337 27.5603 62.8013 28.1812C62.1689 28.8022 61.4181 29.2946 60.5917 29.6303C59.7653 29.9661 58.8796 30.1385 57.9852 30.1378H51.1738V23.455V23.4523ZM47.7694 23.4523C47.7701 24.3305 47.5945 25.2002 47.2526 26.0116C46.9106 26.823 46.4091 27.5603 45.7767 28.1812C45.1444 28.8022 44.3935 29.2946 43.5671 29.6303C42.7407 29.9661 41.855 30.1385 40.9606 30.1378C40.0661 30.1389 39.1801 29.9667 38.3534 29.6311C37.5267 29.2955 36.7755 28.8032 36.1428 28.1822C35.5101 27.5612 35.0084 26.8238 34.6663 26.0122C34.3242 25.2006 34.1485 24.3307 34.1492 23.4523V6.68548C34.1485 5.80711 34.3242 4.93722 34.6663 4.12561C35.0084 3.31401 35.5101 2.57661 36.1428 1.95563C36.7755 1.33465 37.5267 0.842289 38.3534 0.506717C39.1801 0.171145 40.0661 -0.00104452 40.9606 4.76684e-06C41.855 -0.000694672 42.7407 0.171753 43.5671 0.507481C44.3935 0.84321 45.1444 1.33563 45.7767 1.95657C46.4091 2.57752 46.9106 3.3148 47.2526 4.12623C47.5945 4.93766 47.7701 5.80733 47.7694 6.68548V23.455V23.4523Z" fill="#2EB67D"></path>
      <path fill-rule="evenodd" clip-rule="evenodd" d="M40.9606 50.2474C41.8549 50.2467 42.7406 50.4191 43.567 50.7548C44.3934 51.0906 45.1443 51.583 45.7767 52.2039C46.4091 52.8249 46.9106 53.5622 47.2525 54.3736C47.5944 55.185 47.7701 56.0547 47.7693 56.9328C47.7704 57.8112 47.5951 58.6812 47.2533 59.4929C46.9115 60.3046 46.4101 61.0422 45.7777 61.6635C45.1452 62.2847 44.3942 62.7773 43.5677 63.1132C42.7411 63.4491 41.8552 63.6217 40.9606 63.621C40.066 63.6217 39.1801 63.4491 38.3535 63.1132C37.527 62.7773 36.776 62.2847 36.1435 61.6635C35.5111 61.0422 35.0097 60.3046 34.6679 59.4929C34.3261 58.6812 34.1508 57.8112 34.1518 56.9328V50.2474H40.9606ZM40.9606 46.9046C40.0663 46.9053 39.1806 46.7329 38.3542 46.3972C37.5278 46.0614 36.7769 45.569 36.1445 44.9481C35.5121 44.3271 35.0106 43.5898 34.6687 42.7784C34.3268 41.967 34.1511 41.0973 34.1518 40.2192C34.1511 39.341 34.3268 38.4714 34.6687 37.6599C35.0106 36.8485 35.5121 36.1112 36.1445 35.4903C36.7769 34.8693 37.5278 34.3769 38.3542 34.0412C39.1806 33.7054 40.0663 33.533 40.9606 33.5337H58.0366C58.931 33.533 59.8167 33.7054 60.6431 34.0412C61.4695 34.3769 62.2203 34.8693 62.8527 35.4903C63.4851 36.1112 63.9866 36.8485 64.3286 37.6599C64.6705 38.4714 64.8461 39.341 64.8454 40.2192C64.8461 41.0973 64.6705 41.967 64.3286 42.7784C63.9866 43.5898 63.4851 44.3271 62.8527 44.9481C62.2203 45.569 61.4695 46.0614 60.6431 46.3972C59.8167 46.7329 58.931 46.9053 58.0366 46.9046H40.9606Z" fill="#ECB22E"></path>
    </g>
    <defs>
      <clipPath id="clip0_1_267">
        <rect width="65" height="63.8231" fill="white"></rect>
      </clipPath>
    </defs>
  </symbol>
  <symbol fill="none" xmlns="http://www.w3.org/2000/svg" viewBox="0 0 52 54" id="notion">
    <path d="M16.4963 22.1574V21.7512C16.4963 20.7214 17.3211 19.8673 18.384 19.7964L26.1267 19.2794L36.8342 35.047V21.2083L34.0781 20.8409V20.6479C34.0781 19.6061 34.9218 18.7464 35.9983 18.6912L43.0433 18.3303V19.3442C43.0433 19.8201 42.6894 20.2272 42.2043 20.3092L40.509 20.596V43.0074L38.3813 43.7391C36.6038 44.3504 34.6249 43.696 33.6073 42.1605L23.2122 26.4744V41.4459L26.4118 42.0583L26.3672 42.355C26.2276 43.2847 25.425 43.9877 24.4541 44.0309L16.4963 44.3851C16.3911 43.3855 17.1403 42.4911 18.1739 42.3825L19.2207 42.2726V22.3105L16.4963 22.1574Z" fill="black"></path>
    <path fill-rule="evenodd" clip-rule="evenodd" d="M35.3499 0.933565L3.44706 3.1117C1.5361 3.24217 0.0548096 4.77849 0.0548096 6.62998V37.6598C0.0548096 39.3994 0.65365 41.0896 1.75699 42.4641L8.63571 51.0334C9.74788 52.4189 11.4981 53.1818 13.3088 53.0703L48.7174 50.8907C50.5322 50.779 51.945 49.3239 51.945 47.5663V12.2885C51.945 11.2012 51.3959 10.1823 50.474 9.55901L39.265 1.98059C38.1227 1.20825 36.7405 0.83862 35.3499 0.933565ZM5.02906 7.11399C4.58535 6.78548 4.79651 6.10109 5.35393 6.06111L35.5645 3.89422C36.5271 3.82518 37.4835 4.09024 38.262 4.64176L44.3235 8.93625C44.5536 9.0993 44.4457 9.45127 44.1608 9.46676L12.1679 11.2067C11.1997 11.2594 10.244 10.9749 9.47415 10.405L5.02906 7.11399ZM10.6673 16.6614C10.6673 15.6221 11.5069 14.7635 12.5807 14.7051L46.4062 12.8629C47.4527 12.8059 48.3336 13.6107 48.3336 14.6236V45.1705C48.3336 46.208 47.4969 47.0656 46.4253 47.1266L12.8139 49.0391C11.6493 49.1053 10.6673 48.2104 10.6673 47.083V16.6614Z" fill="black"></path>
  </symbol>
  <symbol fill="none" xmlns="http://www.w3.org/2000/svg" viewBox="0 0 65 63" id="vscode">
    <g opacity="0.78">
      <mask id="mask0_1_390" maskUnits="userSpaceOnUse" x="0" y="0" width="65" height="63">
        <path d="M45.9135 62.497C46.4286 62.6927 46.9797 62.7831 47.5322 62.7624C48.0848 62.7417 48.6271 62.6104 49.1254 62.3767L62.4557 56.1267C63.1422 55.8046 63.7215 55.3002 64.1269 54.6715C64.5323 54.0429 64.7473 53.3154 64.7472 52.573V10.1931C64.7473 9.45065 64.5323 8.72327 64.1269 8.09463C63.7215 7.46599 63.1422 6.96164 62.4557 6.63958L49.1256 0.389333C48.3724 0.0361606 47.5251 -0.0801242 46.7011 0.0565747C45.877 0.193274 45.117 0.576195 44.5261 1.15234L19.0068 23.8383L7.89074 15.6165C7.38932 15.2456 6.77047 15.0575 6.14158 15.0847C5.51268 15.112 4.91342 15.3529 4.44777 15.7657L0.882669 18.9258C-0.292917 19.9677 -0.294186 21.7698 0.879622 22.8133L10.5197 31.383L0.879622 39.9525C-0.294186 40.9963 -0.292917 42.7981 0.882669 43.8402L4.44777 47.0001C4.91339 47.4129 5.51264 47.6539 6.14153 47.6812C6.77043 47.7085 7.38929 47.5204 7.89074 47.1495L19.0068 38.9275L44.5261 61.6135C44.9207 61.9985 45.3931 62.2994 45.9135 62.497ZM48.5703 17.0609L29.2069 31.383L48.5703 45.7049V17.0609Z" fill="white"></path>
      </mask>
      <g mask="url(#mask0_1_390)">
        <path d="M62.4953 6.64928L49.1545 0.390373C48.4011 0.036915 47.5535 -0.0796175 46.7291 0.0569015C45.9048 0.193421 45.1443 0.576241 44.553 1.15239L0.880099 39.9525C-0.294472 40.9963 -0.292948 42.7982 0.883145 43.8403L4.45053 47.0002C4.91657 47.4131 5.51619 47.654 6.14545 47.6813C6.77471 47.7086 7.39394 47.5205 7.89578 47.1496L60.4879 8.27301C62.2523 6.96893 64.7865 8.19508 64.7865 10.353V10.202C64.7865 9.45976 64.5715 8.73254 64.1661 8.10404C63.7608 7.47554 63.1817 6.97129 62.4953 6.64928Z" fill="#0065A9"></path>
        <path d="M62.4953 56.1159L49.1545 62.3749C48.4011 62.7282 47.5535 62.8447 46.7292 62.7082C45.9048 62.5717 45.1443 62.1889 44.553 61.6128L0.880099 22.8127C-0.294472 21.7691 -0.292948 19.967 0.883145 18.9252L4.45053 15.7651C4.9166 15.3522 5.51624 15.1113 6.1455 15.084C6.77476 15.0568 7.39397 15.2449 7.89578 15.6159L60.4879 54.4922C62.2523 55.7963 64.7865 54.5701 64.7865 52.412V52.5632C64.7865 53.3055 64.5714 54.0327 64.1661 54.6612C63.7608 55.2897 63.1816 55.7939 62.4953 56.1159Z" fill="#007ACC"></path>
        <path d="M49.1126 62.3798C48.359 62.733 47.5114 62.8493 46.6869 62.7127C45.8625 62.5761 45.102 62.1932 44.5106 61.617C46.0038 63.0718 48.5573 62.0413 48.5573 59.9834V2.78904C48.5573 0.731112 46.0038 -0.299339 44.5106 1.15566C45.102 0.57947 45.8624 0.196552 46.6869 0.059863C47.5113 -0.0768265 48.359 0.039466 49.1126 0.392659L62.4511 6.64291C63.1379 6.96474 63.7175 7.46901 64.1231 8.09767C64.5287 8.72634 64.7439 9.45383 64.7439 10.1964V52.5765C64.7439 54.0919 63.8527 55.4734 62.4511 56.13L49.1126 62.38V62.3798Z" fill="#1F9CF0"></path>
        <path d="M45.9135 62.4964C46.4287 62.6921 46.9797 62.7824 47.5322 62.7618C48.0848 62.7411 48.6271 62.6098 49.1254 62.3762L62.4554 56.1259C63.142 55.8039 63.7214 55.2996 64.1268 54.6709C64.5322 54.0423 64.7473 53.3149 64.7472 52.5724V10.1925C64.7473 9.45009 64.5323 8.72271 64.1269 8.09407C63.7215 7.46543 63.1422 6.96107 62.4557 6.63902L49.1251 0.388521C48.3719 0.0354046 47.5247 -0.0808494 46.7007 0.0558482C45.8767 0.192546 45.1167 0.575435 44.5259 1.15152L19.0068 23.8378L7.89074 15.6159C7.38932 15.2451 6.77047 15.0569 6.14158 15.0842C5.51268 15.1114 4.91342 15.3523 4.44777 15.7651L0.882669 18.9253C-0.292917 19.9671 -0.294186 21.7692 0.879622 22.8128L10.5197 31.3825L0.879622 39.9519C-0.294186 40.9957 -0.292917 42.7976 0.882669 43.8397L4.44777 46.9995C4.91339 47.4124 5.51264 47.6533 6.14153 47.6806C6.77043 47.7079 7.38929 47.5198 7.89074 47.149L19.0068 38.9269L44.5259 61.6129C44.9205 61.998 45.393 62.2989 45.9135 62.4964ZM48.5703 17.0601L29.2069 31.3825L48.5703 45.7044V17.0603V17.0601Z" fill="url(#paint0_linear_1_390)" fill-opacity="0.25"></path>
      </g>
    </g>
    <defs>
      <linearGradient id="paint0_linear_1_390" x1="32.3737" y1="0.00012207" x2="32.3737" y2="62.7647" gradientUnits="userSpaceOnUse">
        <stop stop-color="white"></stop>
        <stop offset="1" stop-color="white" stop-opacity="0"></stop>
      </linearGradient>
    </defs>
  </symbol>
  <symbol fill="none" xmlns="http://www.w3.org/2000/svg" viewBox="0 0 64 64" id="figma">
    <g opacity="0.78">
      <path d="M42.6667 42.6667C48.5577 42.6667 53.3333 37.8911 53.3333 32C53.3333 26.109 48.5577 21.3334 42.6667 21.3334C36.7756 21.3334 32 26.109 32 32C32 37.8911 36.7756 42.6667 42.6667 42.6667Z" fill="#19BCFE"></path>
      <path fill-rule="evenodd" clip-rule="evenodd" d="M21.3334 64C24.1624 64 26.8755 62.8761 28.8759 60.8758C30.8763 58.8754 32.0001 56.1623 32.0001 53.3333V42.6666H21.3334C18.5044 42.6666 15.7913 43.7904 13.7909 45.7908C11.7906 47.7912 10.6667 50.5043 10.6667 53.3333C10.6667 56.1623 11.7906 58.8754 13.7909 60.8758C15.7913 62.8761 18.5044 64 21.3334 64Z" fill="#09CF83"></path>
      <path fill-rule="evenodd" clip-rule="evenodd" d="M21.3334 42.6667H32.0001V21.3334H21.3334C18.5044 21.3334 15.7913 22.4572 13.7909 24.4576C11.7906 26.458 10.6667 29.1711 10.6667 32C10.6667 34.829 11.7906 37.5421 13.7909 39.5425C15.7913 41.5429 18.5044 42.6667 21.3334 42.6667Z" fill="#A259FF"></path>
      <path fill-rule="evenodd" clip-rule="evenodd" d="M21.3334 21.3333H32.0001V0H21.3334C18.5044 0 15.7913 1.12381 13.7909 3.12419C11.7906 5.12458 10.6667 7.83769 10.6667 10.6667C10.6667 13.4956 11.7906 16.2088 13.7909 18.2091C15.7913 20.2095 18.5044 21.3333 21.3334 21.3333Z" fill="#F24E1E"></path>
      <path fill-rule="evenodd" clip-rule="evenodd" d="M42.6667 21.3333H32V0H42.6667C45.4956 0 48.2087 1.12381 50.2091 3.12419C52.2095 5.12458 53.3333 7.83769 53.3333 10.6667C53.3333 13.4956 52.2095 16.2088 50.2091 18.2091C48.2087 20.2095 45.4956 21.3333 42.6667 21.3333Z" fill="#FF7262"></path>
    </g>
  </symbol>
  <symbol fill="none" xmlns="http://www.w3.org/2000/svg" viewBox="0 0 64 57" id="sketch">
    <g clip-path="url(#clip0_1_327)">
      <path d="M32 0L13.9637 1.87248L0 20.2781L32 56.867L64 20.2779L50.0365 1.87248L32 0Z" fill="#FDB300"></path>
      <path d="M0 20.2782L32 56.8671L12.9615 20.2782H0Z" fill="#EB6C00"></path>
      <path d="M51.0382 20.2782L32 56.8671L64 20.2782H51.0382Z" fill="#EB6C00"></path>
      <path d="M12.9617 20.2782L32.0002 56.8671L51.0387 20.2782H12.9617Z" fill="#FDAD00"></path>
      <path d="M13.9636 1.87248L12.9611 20.2781L31.9998 0L13.9636 1.87248Z" fill="#FDD231"></path>
      <path d="M51.0382 20.2781L50.0363 1.87248L32 0L51.0382 20.2781Z" fill="#FDD231"></path>
      <path d="M51.0383 20.2781H63.9998L50.0363 1.87244L51.0383 20.2781Z" fill="#FDAD00"></path>
      <path d="M0 20.2781H12.9615L13.9637 1.87244L0 20.2781Z" fill="#FDAD00"></path>
      <path d="M32.0002 0L12.9617 20.2779H51.0387L32.0002 0Z" fill="#FEEEB7"></path>
    </g>
    <defs>
      <clipPath id="clip0_1_327">
        <rect width="64" height="56.95" fill="white"></rect>
      </clipPath>
    </defs>
  </symbol>
</svg>